<?xml version="1.0" encoding="UTF-8" standalone="no"?>
<svg
   id="Publicdomainvectors.org"
   viewBox="0 0 591.58442 269.19073"
   version="1.1"
   sodipodi:docname="transport2.svg"
   inkscape:version="1.1.2 (0a00cf5339, 2022-02-04)"
   width="591.58441"
   height="269.19073"
   xmlns:inkscape="http://www.inkscape.org/namespaces/inkscape"
   xmlns:sodipodi="http://sodipodi.sourceforge.net/DTD/sodipodi-0.dtd"
   xmlns="http://www.w3.org/2000/svg"
   xmlns:svg="http://www.w3.org/2000/svg">
  <sodipodi:namedview
     id="namedview105"
     pagecolor="#ffffff"
     bordercolor="#666666"
     borderopacity="1.0"
     inkscape:pageshadow="2"
     inkscape:pageopacity="0.0"
     inkscape:pagecheckerboard="0"
     showgrid="false"
     inkscape:zoom="1"
     inkscape:cx="156.5"
     inkscape:cy="225"
     inkscape:window-width="1920"
     inkscape:window-height="1012"
     inkscape:window-x="0"
     inkscape:window-y="0"
     inkscape:window-maximized="1"
     inkscape:current-layer="Publicdomainvectors.org"
     fit-margin-top="0"
     fit-margin-left="0"
     fit-margin-right="0"
     fit-margin-bottom="0" />
  <defs
     id="defs4">
    <style
       id="style2">.cls-1{fill:#d55527;}.cls-2{fill:#e79368;}.cls-3{fill:#f5c77d;}.cls-4,.cls-5,.cls-6,.cls-7,.cls-8,.cls-9,.cls-10,.cls-11,.cls-12,.cls-13,.cls-14,.cls-15{fill-rule:evenodd;}.cls-4,.cls-16{fill:#698eb3;}.cls-5,.cls-17{fill:#323033;}.cls-6{fill:#b34b26;}.cls-7{fill:#bcbac3;}.cls-8{fill:#e86726;}.cls-9{fill:#4e4d51;}.cls-10,.cls-18{fill:#f0a67f;}.cls-19{fill:#f4e3db;}.cls-11{fill:#8daecf;}.cls-20{fill:#fad08d;}.cls-21{fill:#bc4626;}.cls-12{fill:#a09ea5;}.cls-22{fill:#fdd3be;}.cls-23{fill:#d99d53;}.cls-24,.cls-13{fill:#ebcdbd;}.cls-25{fill:#9e815e;}.cls-14{fill:#a4c2e0;}.cls-15{fill:#dab3a0;}.cls-26{fill:#7c2d18;}.cls-27{fill:#e3a860;}</style>
  </defs>
  <path
     style="fill:none;stroke:#000000;stroke-width:1px;stroke-linecap:butt;stroke-linejoin:miter;stroke-opacity:1"
     d="m 42.596375,124.78 h 16.599998 v 8.03999 H 69.226372 V 124.78 h 20.980004 38.900014 v 58.36999 H 90.206376 V 124.78"
     id="path159" />
  <path
     style="fill:none;stroke:#000000;stroke-width:1px;stroke-linecap:butt;stroke-linejoin:miter;stroke-opacity:1"
     d="M 69.226372,124.78 H 42.596375 l 0.139999,58.38 47.470002,-0.01 -5.760003,0.01 v 82.55002 H 19.836375 V 183.16 h 22.899999 v 11.42 h 11.239998 v -11.42 h 30.470001 60.520007 v 82.55002 H 84.446373"
     id="path161" />
  <path
     style="fill:none;stroke:#000000;stroke-width:1px;stroke-linecap:butt;stroke-linejoin:miter;stroke-opacity:1"
     d="m 157.35637,0.5 h 181.33001 151.7 v 218.45 h -77.1 c -1.40249,-31.48466 -37.4153,-57.74623 -50.16,0 h -24.45 l 0.01,-218.45 -0.01,218.45 H 157.35637 V 0.5"
     id="path756"
     sodipodi:nodetypes="ccccccccccc" />
  <path
     style="fill:none;stroke:#000000;stroke-width:1px;stroke-linecap:butt;stroke-linejoin:miter;stroke-opacity:1"
     d="m 167.88638,11.029999 -0.15,197.399991 h 4.08 V 11.029999 Z"
     id="path1304" />
  <path
     style="fill:none;stroke:#000000;stroke-width:1px;stroke-linecap:butt;stroke-linejoin:miter;stroke-opacity:1"
     d="M 328.16639,11.029999 V 208.42999 H 171.81638 V 11.029999 Z"
     id="path1306" />
  <path
     style="fill:none;stroke:#000000;stroke-width:1px;stroke-linecap:butt;stroke-linejoin:miter;stroke-opacity:1"
     d="m 171.81638,54.41 h 156.35001 l -10e-6,-7.96 h -156.35 v -2.890001 h 156.35 v -7.95 h -156.35 v -2.9 h 156.35 v -7.94 h -156.35 v -2.9 h 156.35 v -7.94 h -156.35 z"
     id="path1308" />
  <path
     style="fill:none;stroke:#000000;stroke-width:1px;stroke-linecap:butt;stroke-linejoin:miter;stroke-opacity:1"
     d="M 184.29638,208.42999 V 125.87 h 22.90001 v 11.42001 h 11.24 V 125.87 h 30.46999 v 82.55999 l 13.20999,-0.01 V 143 h 22.82001 v 9.00999 h 11.23999 V 143 h 19.30001 v 65.42 h 12.69001 V 143 h -12.69001 -30.54"
     id="path2063" />
  <path
     style="fill:none;stroke:#000000;stroke-width:1px;stroke-linecap:butt;stroke-linejoin:miter;stroke-opacity:1"
     d="m 248.90638,125.87 h 60.51999 l -0.017,17.17669"
     id="path2065" />
  <path
     style="fill:none;stroke:#000000;stroke-width:1px;stroke-linecap:butt;stroke-linejoin:miter;stroke-opacity:1"
     d="m 207.19639,125.87 h 11.24"
     id="path2740" />
  <path
     style="fill:none;stroke:#000000;stroke-width:1px;stroke-linecap:butt;stroke-linejoin:miter;stroke-opacity:1"
     d="m 184.2312,219.43335 c -1.51977,29.22085 5.18846,37.24504 12.32478,44.16641 l 37.38375,-0.38701 c 12.08535,-7.45344 13.94443,-31.06773 12.22351,-44.25269"
     id="path2742"
     sodipodi:nodetypes="cccc" />
  <path
     style="fill:none;stroke:#000000;stroke-width:1px;stroke-linecap:butt;stroke-linejoin:miter;stroke-opacity:1"
     d="m 388.21638,191.47 c -25.9506,4.47766 -24.56627,70.97934 0,74.24"
     id="path3214"
     sodipodi:nodetypes="cc" />
  <path
     style="fill:none;stroke:#000000;stroke-width:1px;stroke-linecap:butt;stroke-linejoin:miter;stroke-opacity:1"
     d="m 388.21638,191.47 c 26.63767,3.14516 23.20113,73.05193 0,74.24"
     id="path3534"
     sodipodi:nodetypes="cc" />
  <path
     style="fill:none;stroke:#000000;stroke-width:0.619492px;stroke-linecap:butt;stroke-linejoin:miter;stroke-opacity:1"
     d="m 388.21638,205.87 c -16.30353,2.73518 -15.4338,43.35778 0,45.34955"
     id="path3214-6"
     sodipodi:nodetypes="cc" />
  <path
     style="fill:none;stroke:#000000;stroke-width:0.619492px;stroke-linecap:butt;stroke-linejoin:miter;stroke-opacity:1"
     d="m 388.21638,205.87 c 16.73518,1.92122 14.57617,44.62383 0,45.34955"
     id="path3534-7"
     sodipodi:nodetypes="cc" />
  <path
     style="fill:none;stroke:#000000;stroke-width:0.404769px;stroke-linecap:butt;stroke-linejoin:miter;stroke-opacity:1"
     d="m 388.12835,213.47414 c -10.45652,1.82064 -9.89871,28.86057 0,30.18638"
     id="path3214-6-5"
     sodipodi:nodetypes="cc" />
  <path
     style="fill:none;stroke:#000000;stroke-width:0.404769px;stroke-linecap:butt;stroke-linejoin:miter;stroke-opacity:1"
     d="m 388.12835,213.47414 c 10.73339,1.27884 9.34867,29.7033 0,30.18638"
     id="path3534-7-3"
     sodipodi:nodetypes="cc" />
  <path
     style="fill:none;stroke:#000000;stroke-width:1px;stroke-linecap:butt;stroke-linejoin:miter;stroke-opacity:1"
     d="m 344.13234,218.90208 c -3.40099,32.46608 10.58527,46.4115 18.38404,46.80792"
     id="path4538"
     sodipodi:nodetypes="cc" />
  <path
     style="fill:none;stroke:#000000;stroke-width:1px;stroke-linecap:butt;stroke-linejoin:miter;stroke-opacity:1"
     d="m 324.14234,218.90208 c -3.40099,32.46608 10.58527,46.4115 18.38404,46.80792"
     id="path4538-3"
     sodipodi:nodetypes="cc" />
  <path
     style="fill:none;stroke:#000000;stroke-width:1px;stroke-linecap:butt;stroke-linejoin:miter;stroke-opacity:1"
     d="m 528.22638,191.55045 c -25.9506,4.47766 -24.56627,70.97934 0,74.24"
     id="path3214-5"
     sodipodi:nodetypes="cc" />
  <path
     style="fill:none;stroke:#000000;stroke-width:1px;stroke-linecap:butt;stroke-linejoin:miter;stroke-opacity:1"
     d="m 528.22638,191.55045 c 26.63767,3.14516 23.20113,73.05193 0,74.24"
     id="path3534-6"
     sodipodi:nodetypes="cc" />
  <path
     style="fill:none;stroke:#000000;stroke-width:0.619492px;stroke-linecap:butt;stroke-linejoin:miter;stroke-opacity:1"
     d="m 528.22638,205.95045 c -16.30353,2.73518 -15.4338,43.35778 0,45.34955"
     id="path3214-6-2"
     sodipodi:nodetypes="cc" />
  <path
     style="fill:none;stroke:#000000;stroke-width:0.619492px;stroke-linecap:butt;stroke-linejoin:miter;stroke-opacity:1"
     d="m 528.22638,205.95045 c 16.73518,1.92122 14.57617,44.62383 0,45.34955"
     id="path3534-7-9"
     sodipodi:nodetypes="cc" />
  <path
     style="fill:none;stroke:#000000;stroke-width:0.404769px;stroke-linecap:butt;stroke-linejoin:miter;stroke-opacity:1"
     d="m 528.13835,213.55459 c -10.45652,1.82064 -9.89871,28.86057 0,30.18638"
     id="path3214-6-5-1"
     sodipodi:nodetypes="cc" />
  <path
     style="fill:none;stroke:#000000;stroke-width:0.404769px;stroke-linecap:butt;stroke-linejoin:miter;stroke-opacity:1"
     d="m 528.13835,213.55459 c 10.73339,1.27884 9.34867,29.7033 0,30.18638"
     id="path3534-7-3-2"
     sodipodi:nodetypes="cc" />
  <path
     style="fill:none;stroke:#000000;stroke-width:1px;stroke-linecap:butt;stroke-linejoin:miter;stroke-opacity:1"
     d="m 484.14234,218.98253 c -3.40099,32.46608 10.58527,46.4115 18.38404,46.80792"
     id="path4538-7"
     sodipodi:nodetypes="cc" />
  <path
     style="fill:none;stroke:#000000;stroke-width:1px;stroke-linecap:butt;stroke-linejoin:miter;stroke-opacity:1"
     d="m 342.52638,265.71 h 45.69"
     id="path5065" />
  <path
     style="fill:none;stroke:#000000;stroke-width:1px;stroke-linecap:butt;stroke-linejoin:miter;stroke-opacity:1"
     d="m 490.38638,218.95 h 7.31001 V 22.28 h -7.31 v 196.67"
     id="path5820" />
  <path
     style="fill:none;stroke:#000000;stroke-width:1px;stroke-linecap:butt;stroke-linejoin:miter;stroke-opacity:1"
     d="m 497.69639,218.95 5.43999,0.01 c 1.96371,-35.30075 39.64307,-54.8771 50.16,0 l 10.43909,-0.0545"
     id="path5822"
     sodipodi:nodetypes="cccc" />
  <path
     style="fill:none;stroke:#000000;stroke-width:1px;stroke-linecap:butt;stroke-linejoin:miter;stroke-opacity:1"
     d="m 570.87638,180.94 c -4.42726,0.46 -7.40377,1.97459 -8.188,6.48471 l -0.1337,27.06894 c 0.47526,5.93239 2.30521,7.45261 6.77483,7.98858 l 11.01647,-0.0102 c 5.98862,-0.35723 7.56398,-4.69429 7.62529,-7.39255 l -0.18575,-27.19396 c -0.66902,-4.42487 -2.46709,-6.45731 -7.53607,-6.88095 z"
     id="path6809"
     sodipodi:nodetypes="ccccccccc" />
  <path
     style="fill:none;stroke:#000000;stroke-width:1px;stroke-linecap:butt;stroke-linejoin:miter;stroke-opacity:1"
     d="m 581.98887,181.29858 -0.0466,-42.76912 c -0.63375,-13.457 -2.49124,-26.60864 -7.88689,-38.877402 l -14.19923,-38.914368 13.11444,-0.0369 0.17822,22.26768 c 0.22416,1.32605 1.4502,2.33784 2.84233,2.42154 l 6.63443,0.14099 c 4.60481,-0.57326 8.36,-2.55739 8.44442,-8.63065 l 0.0144,-18.53123 c -1.09878,-5.57676 -4.42998,-7.5257 -8.46896,-8.32446 l -6.54908,-0.005 c -1.83387,0.13937 -2.87556,1.34246 -3.01322,2.98934 l 0.0334,3.91717 -14.40812,0.003 -8.03542,-21.847488 C 546.82733,26.714268 539.41535,22.986947 529.7069,22.235791 l -32.01052,0.04416"
     id="path7494"
     sodipodi:nodetypes="cccccccccccccccccc" />
  <path
     style="fill:none;stroke:#000000;stroke-width:1px;stroke-linecap:butt;stroke-linejoin:miter;stroke-opacity:1"
     d="M 505.90638,33.859999 V 108.72 h 59.3 L 539.5768,39.526695 c -1.49777,-2.235972 -2.88305,-4.501607 -8.20473,-5.729136 z"
     id="path9638"
     sodipodi:nodetypes="cccccc" />
  <path
     style="fill:none;stroke:#000000;stroke-width:1px;stroke-linecap:butt;stroke-linejoin:miter;stroke-opacity:1"
     d="m 575.17268,82.15144 -0.0757,-28.72709 c 0.0359,-0.49273 0.58072,-1.03495 1.22942,-1.08435 l 6.03627,0.077 c 0.57702,0.032 1.15181,0.70681 1.17018,1.18047 l 0.009,28.48142 c -0.0175,0.5038 -0.3871,1.18659 -0.87717,1.20798 l -6.6682,-0.0187 c -0.49712,0.0163 -0.80232,-0.48034 -0.8238,-1.11666 z"
     id="path10324"
     sodipodi:nodetypes="ccccccccc" />
  <path
     style="fill:none;stroke:#000000;stroke-width:1px;stroke-linecap:butt;stroke-linejoin:miter;stroke-opacity:1"
     d="m 588.50525,265.8729 c -41.78031,-0.78239 -72.7725,-2.06279 -125.4455,-2.34234 L 304.51379,263.34847 C 198.59026,262.94241 99.641057,264.45741 0.00788204,265.78401 74.69749,266.96157 142.46674,268.7003 231.79652,268.69069 c 74.94635,-0.11502 141.93251,-0.1556 209.42799,-0.20094 57.35383,-0.003 99.58384,-1.59752 147.28074,-2.61685 z"
     id="path12519"
     sodipodi:nodetypes="ccccccc" />
  <path
     style="fill:none;stroke:#000000;stroke-width:1px;stroke-linecap:butt;stroke-linejoin:miter;stroke-opacity:1"
     d="m 502.52638,265.79045 h 25.7"
     id="path15723" />
</svg>
