<?xml version="1.0" encoding="UTF-8" standalone="no"?>
<svg
   class="icon icon-tabler icon-tabler-live-photo-off"
   width="24"
   height="24"
   viewBox="0 0 24 24"
   stroke-width="2"
   stroke="currentColor"
   fill="none"
   stroke-linecap="round"
   stroke-linejoin="round"
   version="1.1"
   id="svg38"
   sodipodi:docname="live-photo-off-inverted.svg"
   inkscape:version="1.1.2 (0a00cf5339, 2022-02-04)"
   xmlns:inkscape="http://www.inkscape.org/namespaces/inkscape"
   xmlns:sodipodi="http://sodipodi.sourceforge.net/DTD/sodipodi-0.dtd"
   xmlns="http://www.w3.org/2000/svg"
   xmlns:svg="http://www.w3.org/2000/svg">
  <defs
     id="defs42" />
  <sodipodi:namedview
     id="namedview40"
     pagecolor="#ffffff"
     bordercolor="#666666"
     borderopacity="1.0"
     inkscape:pageshadow="2"
     inkscape:pageopacity="0.0"
     inkscape:pagecheckerboard="0"
     showgrid="false"
     inkscape:zoom="23.291667"
     inkscape:cx="12"
     inkscape:cy="12"
     inkscape:window-width="1346"
     inkscape:window-height="718"
     inkscape:window-x="10"
     inkscape:window-y="40"
     inkscape:window-maximized="1"
     inkscape:current-layer="svg38" />
  <path
     stroke="none"
     d="M0 0h24v24H0z"
     fill="none"
     id="path2" />
  <path
     d="M11.296 11.29a1 1 0 1 0 1.414 1.415"
     id="path4" />
  <path
     d="M8.473 8.456a5 5 0 1 0 7.076 7.066m1.365 -2.591a5 5 0 0 0 -5.807 -5.851"
     id="path6" />
  <path
     d="M15.9 20.11v.01"
     id="path8" />
  <path
     d="M19.04 17.61v.01"
     id="path10" />
  <path
     d="M20.77 14v.01"
     id="path12" />
  <path
     d="M20.77 10v.01"
     id="path14" />
  <path
     d="M19.04 6.39v.01"
     id="path16" />
  <path
     d="M15.9 3.89v.01"
     id="path18" />
  <path
     d="M12 3v.01"
     id="path20" />
  <path
     d="M8.1 3.89v.01"
     id="path22" />
  <path
     d="M4.96 6.39v.01"
     id="path24" />
  <path
     d="M3.23 10v.01"
     id="path26" />
  <path
     d="M3.23 14v.01"
     id="path28" />
  <path
     d="M4.96 17.61v.01"
     id="path30" />
  <path
     d="M8.1 20.11v.01"
     id="path32" />
  <path
     d="M12 21v.01"
     id="path34" />
  <path
     d="M3 3l18 18"
     id="path36" />
  <path
     style="fill:#a0a0a0;stroke:none;stroke-width:0.0858676"
     d="m 16.61045,13.853885 c -0.24388,-0.09118 -0.414219,-0.232716 -0.542306,-0.450608 -0.108678,-0.184875 -0.116678,-0.228889 -0.09899,-0.544601 0.04574,-0.816454 0.01685,-1.535809 -0.07534,-1.876142 C 15.514145,9.5808584 14.411872,8.4757729 13.030411,8.1118234 12.599099,7.9981929 11.845081,7.9576571 11.392818,8.0237868 11.001425,8.081016 10.746906,8.0287024 10.499819,7.8402401 10.305531,7.6920494 10.132121,7.3353579 10.133322,7.0863824 c 0.0017,-0.3506004 0.215534,-0.7073165 0.516597,-0.8617458 0.413765,-0.2122391 1.688755,-0.2578449 2.487827,-0.088989 1.244865,0.2630596 2.190094,0.7720033 3.072349,1.6542573 0.882025,0.8820254 1.390319,1.8258744 1.654562,3.0723491 0.07607,0.358834 0.09555,0.590952 0.09548,1.137746 -1.29e-4,1.084509 -0.137462,1.520514 -0.55617,1.765894 -0.22325,0.130833 -0.57469,0.169803 -0.793515,0.08799 z"
     id="path953" />
  <path
     style="fill:#ffffff;stroke:none;stroke-width:0.0858676"
     d="m 16.462631,13.742258 c -0.125047,-0.07172 -0.270733,-0.203581 -0.343471,-0.310867 l -0.126316,-0.18631 0.01009,-0.772809 c 0.0056,-0.425045 -0.0095,-0.932409 -0.03347,-1.127475 C 15.797651,9.9457839 14.666859,8.6151303 13.266547,8.1641426 12.813781,8.0183236 12.433489,7.9790707 11.613596,7.9935283 10.856704,8.006875 10.836844,8.0049449 10.649344,7.8998211 10.233961,7.6669322 10.050999,7.0676585 10.270245,6.658118 10.51525,6.2004589 10.873561,6.0784617 11.978533,6.076481 c 0.848577,-0.00152 1.108629,0.03761 1.84774,0.2780392 0.803942,0.2615178 1.324669,0.5540083 2.002274,1.1246682 0.867536,0.7306155 1.467523,1.6204042 1.816933,2.6945386 0.236767,0.727853 0.279386,1.003169 0.279386,1.804806 0,1.150052 -0.131484,1.550403 -0.583093,1.77545 -0.315758,0.157349 -0.59077,0.153681 -0.879142,-0.01173 z"
     id="path1160" />
  <path
     style="fill:#a0a0a0;stroke:none;stroke-width:0.0858676"
     d="M 2.7994204,14.872871 C 2.3443019,14.646076 2.140002,14.098181 2.33653,13.631485 2.5207488,13.194019 3.0068874,12.938264 3.438602,13.05169 c 0.6014272,0.158016 0.9186777,0.773875 0.6820285,1.323981 -0.2292497,0.532905 -0.8105632,0.751666 -1.3212101,0.4972 z"
     id="path1310" />
  <path
     style="fill:#a0a0a0;stroke:none;stroke-width:0.0858676"
     d="m 20.67263,21.919035 c -0.09445,-0.03544 -0.180371,-0.06472 -0.190926,-0.06508 -0.01055,-3.43e-4 -1.14275,-1.122651 -2.515989,-2.493989 l -2.4968,-2.493344 -0.274708,0.178232 c -0.597912,0.387926 -1.371348,0.691264 -2.142329,0.840211 -0.54512,0.105313 -1.587664,0.106949 -2.115344,0.0033 C 9.7567938,17.656701 8.7361868,17.13126 7.8896737,16.319763 6.8047844,15.27975 6.1916198,14.01778 6.045457,12.524129 5.9192556,11.234467 6.2850543,9.7939659 7.0111552,8.7212505 L 7.1380791,8.5337375 6.4097435,7.8054015 5.6814077,7.0770659 5.5181772,7.1878373 C 4.9831311,7.5509311 4.2982909,7.3435565 4.0463226,6.7421508 3.942893,6.4952819 3.990779,6.0936759 4.1500663,5.8720819 L 4.2818643,5.6887299 3.2411955,4.6368515 C 2.6688277,4.0583184 2.1649144,3.5173524 2.1213881,3.4347048 2.0683982,3.3340879 2.0417713,3.1911142 2.0408027,3.0019999 2.0395688,2.7611087 2.0584692,2.6886483 2.1692924,2.509396 2.2498307,2.3791284 2.3791285,2.2498307 2.509396,2.1692924 2.6886483,2.0584692 2.7611087,2.0395688 3.0019999,2.0408027 c 0.1867094,9.563e-4 0.3333675,0.027873 0.4327049,0.079417 0.082648,0.042883 3.4658529,3.3914956 7.5182342,7.4413601 l 7.367966,7.3633902 0.166918,-0.108659 c 0.376713,-0.245228 0.778581,-0.23801 1.135296,0.02039 0.22429,0.162474 0.3834,0.489957 0.382674,0.787624 -5.54e-4,0.227744 -0.108502,0.518198 -0.229939,0.618699 -0.06644,0.05499 0.02329,0.157698 0.975222,1.116279 0.576618,0.580646 1.08401,1.123341 1.127536,1.205988 0.05299,0.100617 0.07962,0.243591 0.08058,0.432705 0.0012,0.240891 -0.01767,0.313352 -0.12849,0.492604 -0.244296,0.395141 -0.749072,0.581883 -1.158077,0.428431 z m -7.620752,-6.032061 c 0.324072,-0.09208 0.987478,-0.379138 0.987478,-0.427286 0,-0.01423 -0.342934,-0.367187 -0.762075,-0.784343 L 12.515206,13.91688 12.257603,13.9465 C 10.963698,14.095309 9.9046909,13.036302 10.053495,11.742397 L 10.08312,11.484794 9.3246552,10.722719 C 8.9074991,10.303578 8.554545,9.960644 8.5403124,9.960644 c -0.049492,0 -0.3367423,0.667636 -0.4340969,1.008945 -0.084657,0.296794 -0.097724,0.439739 -0.096151,1.051878 0.00166,0.645054 0.012193,0.742152 0.1178125,1.085724 0.2782201,0.905032 0.8608963,1.721218 1.5751646,2.206421 0.4435124,0.301278 1.0829554,0.561711 1.6168764,0.658522 0.3687,0.06685 1.370275,0.01761 1.73196,-0.08516 z"
     id="path1349" />
  <path
     style="fill:#ffffff;stroke:none;stroke-width:0.0858676"
     d="m 20.629696,21.888206 c -0.08135,-0.02791 -1.054008,-0.967096 -2.640429,-2.549566 l -2.511628,-2.505373 -0.236136,0.151848 c -0.582669,0.374686 -1.38655,0.702773 -2.10491,0.859072 -0.28344,0.06167 -0.543947,0.07892 -1.179527,0.07809 -0.736463,-9.57e-4 -0.859738,-0.01207 -1.26844,-0.114346 C 9.4842127,17.506533 8.4892628,16.931476 7.6853951,16.072138 6.9099735,15.243211 6.4217526,14.321158 6.1752721,13.220127 6.0434345,12.631206 6.0321354,11.429586 6.1532237,10.875349 6.3122615,10.147412 6.647742,9.3216434 7.013225,8.7584973 L 7.1664781,8.5223614 6.4291466,7.7828372 5.6918156,7.0433131 5.5829382,7.1149846 C 5.1374346,7.4082496 4.7152586,7.411352 4.3672692,7.1239191 3.967693,6.7938766 3.9167043,6.2773792 4.2353277,5.7873989 L 4.31076,5.6713987 3.3241274,4.6711198 C 2.0530952,3.3825074 2.0822898,3.4215888 2.0822898,3.0087375 c 0,-0.2914468 0.01312,-0.3435924 0.1258214,-0.5000897 C 2.2773129,2.4125544 2.4125544,2.2773129 2.5086478,2.2081112 2.6652496,2.0953343 2.7171925,2.0822898 3.0096658,2.0822898 h 0.3263027 l 0.2524916,0.2146691 c 0.1388704,0.1180679 3.5083133,3.4629435 7.4876509,7.4330567 l 7.235159,7.2183884 0.235892,-0.133646 c 0.662171,-0.375156 1.414117,0.05489 1.41554,0.809571 3.86e-4,0.19698 -0.02488,0.301975 -0.107295,0.446151 -0.06263,0.109568 -0.0972,0.221892 -0.08252,0.268149 0.01389,0.04378 0.487562,0.555915 1.052594,1.138076 1.085024,1.117918 1.112944,1.156894 1.113454,1.554373 6.13e-4,0.478854 -0.459615,0.909535 -0.965772,0.903767 -0.118068,-0.0013 -0.272629,-0.02233 -0.34347,-0.04664 z m -7.925877,-5.923084 c 0.479478,-0.06489 1.335537,-0.396681 1.335537,-0.517626 0,-0.02759 -0.333274,-0.386414 -0.740608,-0.797388 l -0.740608,-0.747226 -0.3072,0.02673 c -0.615268,0.05352 -1.181811,-0.148778 -1.60679,-0.573757 -0.424979,-0.424979 -0.627282,-0.991522 -0.573757,-1.60679 l 0.02673,-0.3072 -0.7472259,-0.740608 C 8.9389181,10.293918 8.5800932,9.960644 8.5525039,9.960644 c -0.065032,0 -0.2203136,0.309367 -0.3986731,0.794275 l -0.1421276,0.386405 -0.0017,0.837209 c -0.00187,0.921613 0.022628,1.058008 0.2980924,1.659825 0.5290712,1.155883 1.3971637,1.900862 2.6400234,2.265614 0.305266,0.08959 0.452688,0.106856 0.90161,0.105604 0.295169,-8.24e-4 0.679509,-0.02083 0.854087,-0.04445 z"
     id="path1388" />
  <path
     style="fill:#ffffff;stroke:none;stroke-width:0.0858676"
     d="M 2.8765653,14.872697 C 2.5044736,14.711974 2.2353961,14.264404 2.2932709,13.902475 c 0.1025468,-0.641293 0.7416688,-1.022247 1.2917023,-0.769931 0.7713321,0.353832 0.7656038,1.425779 -0.00935,1.750527 -0.1810802,0.07588 -0.5106851,0.07099 -0.6990534,-0.01037 z"
     id="path1464" />
  <path
     style="fill:#ffffff;stroke:none;stroke-width:0.0858676"
     d="M 2.8988549,10.925004 C 2.3766439,10.726043 2.1096204,10.067689 2.3555854,9.5855581 2.5467951,9.210756 2.9774369,8.9764088 3.3674867,9.0349004 3.8111814,9.1014365 4.208656,9.5575377 4.2065705,9.9977471 4.2055367,10.215957 4.0833527,10.526426 3.9365123,10.683964 c -0.2359552,0.253144 -0.714265,0.364251 -1.0376574,0.24104 z"
     id="path1540" />
  <path
     style="fill:#ffffff;stroke:none;stroke-width:0.0858676"
     d="M 7.8234757,4.8313535 C 7.5517893,4.7465155 7.3627008,4.5810374 7.2318608,4.3136101 7.0112233,3.8626432 7.1500392,3.3826062 7.5906333,3.072945 7.7343542,2.9719342 7.8292157,2.9414483 8.0402393,2.9284539 c 0.2301277,-0.014171 0.3004077,7.928e-4 0.503589,0.107221 0.7782019,0.4076294 0.6579463,1.5425556 -0.1902613,1.795612 -0.2511202,0.07492 -0.2903645,0.074925 -0.5300913,6.87e-5 z"
     id="path1616" />
  <path
     style="fill:#ffffff;stroke:none;stroke-width:0.0858676"
     d="m 11.611841,3.8912256 c -0.367716,-0.171231 -0.577852,-0.4933733 -0.577852,-0.8858589 0,-0.3924855 0.210136,-0.7146278 0.577852,-0.8858588 0.35575,-0.1656585 0.705843,-0.1164681 1.00725,0.1415253 0.552875,0.47324 0.432762,1.321136 -0.230932,1.6301924 C 12.269126,3.9466545 12.094454,3.9920055 12,3.9920055 c -0.09445,0 -0.269126,-0.045351 -0.388159,-0.1007799 z"
     id="path1692" />
  <path
     style="fill:#ffffff;stroke:none;stroke-width:0.0858676"
     d="m 4.5724508,18.508772 c -0.8545293,-0.396486 -0.7267643,-1.629757 0.191666,-1.850085 0.5779931,-0.138658 1.1623618,0.342237 1.1598061,0.954441 -0.00291,0.697497 -0.7341224,1.182083 -1.3514721,0.895644 z"
     id="path1768" />
  <path
     style="fill:#ffffff;stroke:none;stroke-width:0.0858676"
     d="M 7.706619,21.00124 C 7.0716774,20.698109 6.9326054,19.893783 7.4330399,19.418992 c 0.4993764,-0.473788 1.3069191,-0.304915 1.5724359,0.328827 0.040563,0.09682 0.056613,0.247959 0.046096,0.434083 -0.01922,0.340142 -0.1517949,0.574695 -0.4282312,0.757632 -0.2354094,0.155787 -0.6598215,0.184355 -0.9167217,0.06171 z"
     id="path1844" />
  <path
     style="fill:#ffffff;stroke:none;stroke-width:0.0858676"
     d="m 11.613596,21.900543 c -0.498296,-0.2312 -0.718859,-0.825267 -0.488419,-1.315508 0.187158,-0.398161 0.659562,-0.632934 1.073675,-0.53359 0.768045,0.184251 1.028483,1.121874 0.461131,1.660154 -0.285374,0.270751 -0.706271,0.346752 -1.046387,0.188944 z"
     id="path1920" />
  <path
     style="fill:#ffffff;stroke:none;stroke-width:0.0858676"
     d="m 15.466976,20.990148 c -0.202984,-0.100475 -0.38052,-0.289577 -0.468115,-0.498608 -0.07441,-0.177557 -0.07441,-0.576542 0,-0.7541 0.261212,-0.623339 1.072983,-0.788193 1.568099,-0.318448 0.405029,0.384275 0.405029,1.006722 0,1.390997 -0.294416,0.27933 -0.749167,0.35381 -1.099984,0.180159 z"
     id="path1996" />
  <path
     style="fill:#ffffff;stroke:none;stroke-width:0.0858676"
     d="m 20.44675,14.926589 c -0.402554,-0.145994 -0.68409,-0.585833 -0.64117,-1.001689 0.07086,-0.686539 0.784807,-1.100212 1.380772,-0.800039 0.727345,0.366346 0.736352,1.38816 0.0154,1.747424 -0.244831,0.122005 -0.514793,0.141422 -0.755005,0.0543 z"
     id="path2072" />
  <path
     style="fill:#ffffff;stroke:none;stroke-width:0.0858676"
     d="m 20.522083,10.950941 c -0.316484,-0.09627 -0.503917,-0.260524 -0.640121,-0.560959 -0.32654,-0.7202709 0.374863,-1.5435319 1.13398,-1.3309922 0.413052,0.1156474 0.717153,0.5161895 0.717153,0.9445882 0,0.632189 -0.629141,1.12436 -1.211012,0.947363 z"
     id="path2148" />
  <path
     style="fill:#ffffff;stroke:none;stroke-width:0.0858676"
     d="M 18.743091,7.3230086 C 18.350469,7.177447 18.111651,6.8729171 18.083356,6.481747 c -0.02499,-0.3454512 0.07118,-0.5919725 0.314491,-0.8061389 0.388148,-0.3416612 0.879506,-0.3505372 1.262389,-0.022804 0.530743,0.4542963 0.438529,1.2934356 -0.176623,1.607263 -0.226139,0.1153676 -0.529553,0.1411566 -0.740522,0.062941 z"
     id="path2224" />
  <path
     style="fill:#ffffff;stroke:none;stroke-width:0.0858676"
     d="m 15.627907,4.8284831 c -0.827689,-0.2570027 -0.940324,-1.3918397 -0.177566,-1.789051 0.422702,-0.220125 0.870125,-0.1344509 1.178344,0.2256332 0.271297,0.3169492 0.317992,0.6918453 0.132529,1.0640202 -0.130267,0.2614131 -0.318682,0.4194652 -0.601522,0.5045874 -0.241638,0.072723 -0.282138,0.072327 -0.531785,-0.00519 z"
     id="path2300" />
</svg>
